# xmcd
#
# Track frame offsets:
#	150
#	14248
#	31800
#	46712
#	59633
#	75607
#	93434
#	111106
#	126156
#	141373
#	154184
#	171698
#	184102
#
# Disc length: 2630 seconds
#
# Revision: 0
# Processed by: cddbd v1.5.2PL0 Copyright (c) Steve Scherf et al.
# Submitted via: EasyCDDAExtractor 12.0.1.1
#
DISCID=b60a440d
DTITLE=Grand Junction Australia - The Return
DYEAR=2008
DGENRE=Country
TTITLE0=After Dark
TTITLE1=Isa Bound
TTITLE2=Late Night Lenny
TTITLE3=Bad Bad Woman
TTITLE4=One Of A Kind
TTITLE5=Transparent Breeze
TTITLE6=Turnback Boys
TTITLE7=Rescue Me
TTITLE8=It's Raining
TTITLE9=Lone Star Stomp
TTITLE10=These Tears
TTITLE11=Devil Whiskey
TTITLE12=This Magic Land
EXTD=
EXTT0=
EXTT1=
EXTT2=
EXTT3=
EXTT4=
EXTT5=
EXTT6=
EXTT7=
EXTT8=
EXTT9=
EXTT10=
EXTT11=
EXTT12=
PLAYORDER=
